<?xml version="1.0" encoding="utf-8"?>
<!-- Generator: Adobe Illustrator 25.0.0, SVG Export Plug-In . SVG Version: 6.00 Build 0)  -->
<svg version="1.1" id="Layer_1" xmlns="http://www.w3.org/2000/svg" xmlns:xlink="http://www.w3.org/1999/xlink" x="0px" y="0px"
	 viewBox="0 0 242.8 517.9" style="enable-background:new 0 0 242.8 517.9;" xml:space="preserve">
<style type="text/css">
	.st0{fill:#CFCFCF;}
	.st1{fill:#DF88FF;}
	.st2{fill:#72C001;}
	.st3{fill:#04C4FF;}
	.st4{fill:#EC7E07;}
	.st5{fill:#FF5584;}
	.st6{fill:#00BD93;}
	.st7{fill:#D3B3B0;}
	.st8{fill:none;}
	.st9{font-family:'HelveticaNeue';}
	.st10{font-size:7px;}
	.st11{font-size:6px;}
	.st12{fill:#4C463E;}
	.st13{font-size:14px;}
	.st14{enable-background:new    ;}
	.st15{font-size:7.4068px;}
	.st16{fill:none;stroke:#231F20;stroke-width:0.25;stroke-miterlimit:10;}
	.st17{font-size:16px;}
	.st18{font-family:'MyriadPro-Regular';}
	.st19{font-size:12px;}
	.st20{fill:#C0C0C0;}
</style>
<rect x="-292.8" y="-89.2" class="st0" width="242.2" height="517.9"/>
<ellipse class="st1" cx="16.2" cy="213.1" rx="9.7" ry="8"/>
<ellipse class="st2" cx="16.2" cy="233.6" rx="9.7" ry="8"/>
<ellipse class="st3" cx="16.2" cy="254.1" rx="9.7" ry="8"/>
<ellipse class="st4" cx="141.2" cy="212.6" rx="9.7" ry="8"/>
<ellipse class="st5" cx="141.2" cy="233.1" rx="9.7" ry="8"/>
<ellipse class="st6" cx="141.2" cy="253.6" rx="9.7" ry="8"/>
<ellipse class="st7" cx="141.2" cy="274.1" rx="9.7" ry="8"/>
<rect x="29" y="205" class="st8" width="83.3" height="16.1"/>
<text transform="matrix(1 0 0 1 29.0191 211.3748)" class="st9 st10">National Museum of </text>
<text transform="matrix(1 0 0 1 29.0191 219.7748)" class="st9 st10">American History</text>
<rect x="29" y="225" class="st8" width="83.3" height="16.1"/>
<text transform="matrix(1 0 0 1 29.014 235.5521)" class="st9 st10">National Portrait Gallery</text>
<rect x="29" y="246.1" class="st8" width="83.3" height="16.1"/>
<text transform="matrix(1 0 0 1 29.0191 252.405)" class="st9 st10">Smithsonian Institution </text>
<text transform="matrix(1 0 0 1 29.0191 260.805)" class="st9 st10">Archives</text>
<rect x="154.1" y="204.5" class="st8" width="83.3" height="16.1"/>
<text transform="matrix(1 0 0 1 154.0271 215.0624)" class="st9 st10">Archives of American Art</text>
<rect x="154.1" y="225.1" class="st8" width="83.3" height="16.1"/>
<text transform="matrix(1 0 0 1 154.0691 231.6224)" class="st9 st11">National Museum of African </text>
<text transform="matrix(1 0 0 1 154.033 238.8225)" class="st9 st11">American History and Culture</text>
<rect x="154.1" y="245.6" class="st8" width="83.3" height="16.1"/>
<text transform="matrix(1 0 0 1 154.0691 256.0925)" class="st9 st10">Freer Sackler Gallery</text>
<rect x="154.1" y="266.1" class="st8" width="83.3" height="16.1"/>
<text transform="matrix(1 0 0 1 154.0691 276.6082)" class="st9 st10">Freer Sackler Archives</text>
<rect x="102.5" y="416.4" class="st8" width="67.3" height="9.4"/>
<text transform="matrix(1 0 0 1 102.47 422.4064)" class="st9 st10">Smithsonian </text>
<rect x="102.5" y="406.7" class="st8" width="117.5" height="7.6"/>
<text transform="matrix(1 0 0 1 102.4701 412.7469)" class="st9 st10">Smithsonain Field Book Project</text>
<rect x="102.5" y="368.1" class="st8" width="103.5" height="9.4"/>
<text transform="matrix(1 0 0 1 102.47 374.1094)" class="st9 st10">National Museum of African Art </text>
<rect x="102.5" y="348.8" class="st8" width="88.3" height="9.4"/>
<text transform="matrix(1 0 0 1 102.47 354.7905)" class="st9 st10">Human Studies Film </text>
<rect x="102.5" y="377.8" class="st8" width="76.4" height="9.4"/>
<text transform="matrix(1 0 0 1 102.47 383.7691)" class="st9 st10">National Postal Museum</text>
<rect x="102.5" y="329.5" class="st8" width="45.4" height="9.4"/>
<text transform="matrix(1 0 0 1 102.47 335.4717)" class="st9 st10">Cooper Hewitt</text>
<rect x="102.5" y="387.4" class="st8" width="129.9" height="16.7"/>
<text transform="matrix(1 0 0 1 102.4701 393.4282)" class="st9 st10">National Museum of the American Indian </text>
<rect x="102.5" y="340" class="st8" width="106.7" height="8.4"/>
<text transform="matrix(1 0 0 1 102.4699 346.0471)" class="st9 st10">Folklife Archives and Collections</text>
<rect x="102.5" y="358.5" class="st8" width="111" height="9.4"/>
<text transform="matrix(1 0 0 1 102.47 364.45)" class="st9 st10">National Anthropological Archives </text>
<rect x="102.5" y="397.1" class="st8" width="126.8" height="9.7"/>
<text transform="matrix(1 0 0 1 102.47 403.0876)" class="st9 st10">National Air and Space Museum</text>
<ellipse class="st12" cx="16.2" cy="274.6" rx="9.7" ry="8"/>
<rect x="29" y="266.6" class="st8" width="83.3" height="16.1"/>
<text transform="matrix(1 0 0 1 29.0191 272.9196)" class="st9 st10">Smithsonian American Art </text>
<text transform="matrix(1 0 0 1 29.0191 281.3196)" class="st9 st10">Museum</text>
<rect x="4.5" y="80.8" class="st8" width="226.6" height="54.6"/>
<rect x="14.7" y="126" class="st8" width="100.7" height="27.5"/>
<rect x="34.9" y="134.3" class="st8" width="60.9" height="12"/>
<rect x="47.8" y="135.9" class="st8" width="48" height="16.1"/>
<text transform="matrix(1 0 0 1 47.808 147.8976)" class="st9 st13">Bigger</text>
<rect x="39.5" y="153.6" class="st8" width="59.8" height="7.6"/>
<rect x="39.5" y="155.2" class="st8" width="56.3" height="17.8"/>
<text transform="matrix(1 0 0 1 39.5447 161.1837)" class="st14"><tspan x="0" y="0" class="st9 st10">More connec</tspan><tspan x="41.2" y="0" class="st9 st10">-</tspan><tspan x="0" y="8.4" class="st9 st10">tions</tspan></text>
<rect x="149.6" y="139.8" class="st8" width="24" height="9.9"/>
<text transform="matrix(0.9672 0 0 1 149.5547 145.7656)" class="st9 st10">Smaller</text>
<rect x="134.2" y="154.3" class="st8" width="60.8" height="9.9"/>
<text transform="matrix(0.9672 0 0 1 134.2354 160.6382)" class="st9 st15">Fewer connections</text>
<line class="st16" x1="21.2" y1="98.4" x2="205.4" y2="98.4"/>
<rect x="-167.4" y="37" class="st8" width="0" height="13"/>
<rect x="-246.9" y="50.1" class="st8" width="197.1" height="12"/>
<text transform="matrix(0.9264 0 0 1 -246.8525 57.8013)" class="st9" style="font-size:9px;">This graph maps relationships between topics at the </text>
<rect x="-263.2" y="60.9" class="st8" width="231.6" height="12"/>
<text transform="matrix(0.9264 0 0 1 -263.2222 68.6016)" class="st9" style="font-size:9px;">Smithsonian’s cultural collections. Any topic that is tagged to  </text>
<rect x="-248.6" y="71.7" class="st8" width="202.9" height="12"/>
<text transform="matrix(0.9264 0 0 1 -248.6128 79.4014)" class="st9" style="font-size:9px;">five or more individual objects within one collection is  </text>
<rect x="-265.3" y="82.5" class="st8" width="233.5" height="12"/>
<text transform="matrix(0.9264 0 0 1 -265.2974 90.2017)" class="st9" style="font-size:9px;">displayed as a distinct topic on this graph with the collection’s </text>
<rect x="-186.9" y="93.3" class="st8" width="76.4" height="22.8"/>
<text transform="matrix(0.9264 0 0 1 -186.9238 101.0015)" class="st14"><tspan x="0" y="0" class="st9" style="font-size:9px;">corresponding </tspan><tspan x="0" y="10.8" class="st9" style="font-size:9px;">color.</tspan></text>
<text transform="matrix(0.9228 0 0 1 -210.6437 207.0858)" class="st9 st19">Navigation</text>
<rect x="-273.3" y="212.2" class="st8" width="0" height="12"/>
<rect x="-303.4" y="223" class="st8" width="158.3" height="12"/>
<text transform="matrix(0.9228 0 0 1 -303.422 230.6854)" class="st9" style="font-size:9px;">Zooming in and out controls which topics  </text>
<rect x="-271.7" y="233.8" class="st8" width="167.5" height="12"/>
<text transform="matrix(0.9228 0 0 1 -271.7325 241.4852)" class="st14"><tspan x="0" y="0" class="st9" style="font-size:9px;">are displayed by their number of connec</tspan><tspan x="162.2" y="0" class="st9" style="font-size:9px;">-</tspan></text>
<line class="st16" x1="23.3" y1="173.7" x2="207.4" y2="173.7"/>
<text transform="matrix(1.0777 0 0 1 37.1821 22.7305)" class="st9 st17">Cultural Connections </text>
<text transform="matrix(1.0777 0 0 1 48.498 41.9307)" class="st9 st17">at the Smithsonian</text>
<rect x="6.7" y="48.9" class="st8" width="229.9" height="46"/>
<text transform="matrix(1 0 0 1 22.7808 57.4106)"><tspan x="0" y="0" class="st18 st19">Topic tags of items in the Smithsonian’s </tspan><tspan x="1.4" y="14.4" class="st18 st19">cultural museums, topics shared across </tspan><tspan x="36.1" y="28.8" class="st18 st19">museums are connected.</tspan></text>
<text transform="matrix(1 0 0 1 960 540)" class="st18 st19">https://justinkraus.github.io/si_topics/</text>
<text transform="matrix(1 0 0 1 960 540)" class="st18 st19">https://justinkraus.github.io/si_topics/</text>
<rect x="26.4" y="101.8" class="st8" width="184.9" height="29"/>
<text transform="matrix(1 0 0 1 27.3579 111.8657)"><tspan x="0" y="0" class="st18 st19">Zoom level controls which topics are  </tspan><tspan x="10.9" y="14" class="st18 st19">displayed by number of connec</tspan><tspan x="168.5" y="14" class="st18 st19">-</tspan></text>
<text transform="matrix(1 0 0 1 71.0679 193.2876)" class="st18 st13">Museum Legend</text>
<ellipse class="st20" cx="14.7" cy="398" rx="9.7" ry="8"/>
<text transform="matrix(1 0 0 1 -3.0204 411.9167)" class="st14"><tspan x="0" y="0" class="st9 st10">Shared Fill </tspan><tspan x="-8.3" y="8.4" class="st9 st10">(low total topics)</tspan></text>
</svg>
